<svg xmlns="http://www.w3.org/2000/svg" xmlns:xlink="http://www.w3.org/1999/xlink" width="965" zoomAndPan="magnify" viewBox="0 0 723.75 171.000002" height="228" preserveAspectRatio="xMidYMid meet" version="1.0"><defs><g/></defs><path fill="#d88471" d="M 18.691406 2.773438 C 17.949219 2.933594 17.617188 3.351562 15.917969 6.273438 C 12.953125 11.34375 11.558594 16.152344 11.152344 22.644531 C 11.050781 24.300781 11.253906 27.136719 11.617188 29.328125 C 12.039062 31.828125 13.039062 34.835938 14.304688 37.421875 L 15.046875 38.917969 L 14.535156 39.527344 C 12.910156 41.5625 10.949219 45.644531 10.585938 47.734375 C 10.46875 48.476562 10.453125 49.652344 10.570312 49.769531 C 10.65625 49.855469 11.398438 49.289062 12.835938 48.042969 C 14.320312 46.761719 19.433594 42.78125 21.191406 41.53125 C 25.433594 38.523438 30.546875 35.953125 36.082031 34.050781 C 42.722656 31.769531 47.5 30.78125 55.710938 29.96875 C 60.867188 29.472656 60.894531 29.472656 65.136719 29.867188 C 73.332031 30.621094 77.210938 31.320312 82.933594 33.0625 C 90.765625 35.445312 96.734375 38.394531 102.402344 42.652344 C 105.320312 44.832031 109.085938 47.867188 110.828125 49.421875 C 111.523438 50.03125 111.628906 49.972656 111.628906 48.898438 C 111.628906 47.984375 111.277344 46.734375 110.550781 44.917969 C 109.753906 42.914062 108.925781 41.386719 107.851562 39.949219 L 107.023438 38.832031 L 107.515625 37.972656 C 108.109375 36.898438 109.332031 33.804688 109.824219 32.117188 C 110.8125 28.71875 111.160156 23.808594 110.695312 20.03125 C 109.972656 14.320312 108.648438 10.457031 105.757812 5.605469 C 104.390625 3.296875 104.058594 2.917969 103.246094 2.726562 C 102.472656 2.554688 99.335938 2.570312 98.074219 2.757812 C 91.402344 3.746094 86.902344 5.183594 83.371094 7.449219 C 79.503906 9.949219 76.382812 12.753906 74.144531 15.746094 C 72.007812 18.59375 71.152344 20.058594 70.644531 21.628906 C 70.5 22.066406 70.339844 22.414062 70.265625 22.398438 C 70.207031 22.382812 69.625 22.269531 68.988281 22.136719 C 66.417969 21.613281 64.789062 21.46875 61.128906 21.46875 C 59.125 21.46875 56.929688 21.542969 56.261719 21.613281 C 54.953125 21.789062 52.28125 22.269531 51.917969 22.414062 C 51.742188 22.488281 51.613281 22.269531 51.363281 21.441406 C 50.753906 19.492188 47.691406 15.046875 45.320312 12.695312 C 43.230469 10.617188 40.164062 8.277344 37.460938 6.695312 C 34.6875 5.066406 29.804688 3.613281 24.445312 2.832031 C 22.757812 2.582031 19.664062 2.539062 18.691406 2.773438 Z M 23.878906 3.976562 C 32.492188 5.371094 36.140625 6.8125 41.601562 11.023438 C 45.351562 13.914062 49.492188 18.957031 50.683594 22.078125 C 51.105469 23.183594 51.25 23.257812 52.351562 22.9375 C 54.605469 22.269531 62.59375 21.992188 66.417969 22.429688 C 67.59375 22.558594 68.957031 22.761719 69.46875 22.878906 C 70.816406 23.183594 70.917969 23.15625 71.179688 22.53125 C 71.863281 20.933594 72.242188 20.25 73.246094 18.796875 C 76.078125 14.65625 78.867188 11.953125 83.328125 8.988281 C 87.132812 6.460938 90.488281 5.300781 97.289062 4.125 C 98.914062 3.847656 99.960938 3.761719 101.53125 3.761719 L 103.609375 3.761719 L 104.523438 5.167969 C 108.066406 10.632812 109.925781 16.964844 109.914062 23.664062 C 109.914062 28.457031 109.171875 31.785156 107.050781 36.710938 C 106.25 38.554688 106.121094 38.988281 106.398438 39.09375 C 106.613281 39.164062 108.359375 42.144531 109.230469 43.929688 C 110.015625 45.542969 110.902344 47.910156 110.902344 48.417969 C 110.902344 48.59375 110.421875 48.214844 109.347656 47.183594 C 105.523438 43.550781 100.351562 39.703125 96.429688 37.582031 C 92.710938 35.574219 89.371094 34.136719 85.039062 32.714844 C 78.359375 30.507812 74.085938 29.722656 65.09375 29.023438 L 61.070312 28.71875 L 56.957031 29.023438 C 48.082031 29.691406 44.042969 30.433594 37.347656 32.613281 C 28.554688 35.488281 22.5 38.832031 15.597656 44.628906 C 14.59375 45.46875 13.171875 46.734375 12.445312 47.445312 C 11.703125 48.15625 11.09375 48.664062 11.09375 48.5625 C 11.09375 48.1875 12.167969 45.308594 12.835938 43.929688 C 13.636719 42.289062 15.191406 39.585938 15.625 39.105469 L 15.917969 38.785156 L 15.175781 37.074219 C 12.996094 31.972656 12.34375 29.285156 12.167969 24.609375 C 11.980469 19.683594 13.011719 14.308594 15.03125 9.804688 C 15.757812 8.175781 17.28125 5.460938 18.066406 4.371094 L 18.503906 3.761719 L 20.507812 3.761719 C 21.597656 3.761719 23.121094 3.863281 23.878906 3.976562 Z M 23.878906 3.976562 " fill-opacity="1" fill-rule="nonzero"/><path fill="#d88471" d="M 23.804688 14.394531 C 23.152344 14.742188 22.714844 15.324219 22.441406 16.167969 C 21.699219 18.449219 21.378906 21.425781 21.496094 25.261719 C 21.597656 29.054688 21.84375 30.417969 22.601562 31.421875 C 22.863281 31.753906 22.976562 31.695312 24.589844 30.535156 C 26.160156 29.402344 29.949219 27.585938 32.523438 26.730469 C 35.210938 25.828125 37.289062 25.40625 39.277344 25.304688 C 41.328125 25.21875 41.457031 25.1875 41.457031 24.753906 C 41.457031 24.289062 40.441406 23.097656 38.320312 21.0625 C 35.226562 18.113281 33.800781 17.210938 29.542969 15.484375 C 26.8125 14.378906 24.589844 13.957031 23.804688 14.394531 Z M 23.804688 14.394531 " fill-opacity="1" fill-rule="nonzero"/><path fill="#d88471" d="M 95.542969 14.4375 C 94.453125 14.683594 90.632812 16.210938 89.035156 17.023438 C 87.539062 17.808594 86.101562 18.882812 83.996094 20.800781 C 82.265625 22.382812 80.539062 24.347656 80.539062 24.722656 C 80.539062 25.128906 80.902344 25.21875 82.714844 25.304688 C 83.71875 25.347656 85.15625 25.523438 85.914062 25.695312 C 89.996094 26.570312 94.660156 28.53125 97.578125 30.59375 C 98.304688 31.117188 98.988281 31.566406 99.074219 31.609375 C 99.351562 31.710938 99.960938 30.664062 100.25 29.621094 C 100.453125 28.820312 100.5 27.976562 100.5 24.171875 C 100.511719 19.972656 100.484375 19.566406 100.164062 18.144531 C 99.46875 15.003906 98.972656 14.335938 97.332031 14.261719 C 96.851562 14.25 96.039062 14.320312 95.542969 14.4375 Z M 95.542969 14.4375 " fill-opacity="1" fill-rule="nonzero"/><g fill="#7ed957" fill-opacity="0.4"><g transform="translate(7.092853, 166.618102)"><g><path d="M 6.921875 0 L 6.921875 -69.171875 L 62.25 -69.171875 L 62.25 -55.328125 L 20.75 -55.328125 L 20.75 -27.671875 L 62.25 -27.671875 L 62.25 -13.828125 L 20.75 -13.828125 L 20.75 0 Z M 62.25 -27.671875 L 62.25 -55.328125 L 76.078125 -55.328125 L 76.078125 -27.671875 Z M 62.25 -27.671875 "/></g></g></g><g fill="#7ed957" fill-opacity="0.4"><g transform="translate(90.092411, 166.618102)"><g><path d="M 62.25 -13.828125 L 62.25 0 L 20.75 0 L 20.75 -13.828125 Z M 6.921875 -13.828125 L 6.921875 -69.171875 L 20.75 -69.171875 L 20.75 -13.828125 Z M 62.25 -13.828125 L 62.25 -69.171875 L 76.078125 -69.171875 L 76.078125 -13.828125 Z M 62.25 -13.828125 "/></g></g></g><g fill="#7ed957" fill-opacity="0.4"><g transform="translate(173.09197, 166.618102)"><g><path d="M 6.921875 0 L 6.921875 -69.171875 L 62.25 -69.171875 L 62.25 -55.328125 L 20.75 -55.328125 L 20.75 -27.671875 L 62.25 -27.671875 L 62.25 -13.828125 L 20.75 -13.828125 L 20.75 0 Z M 62.25 0 L 62.25 -13.828125 L 76.078125 -13.828125 L 76.078125 0 Z M 62.25 -27.671875 L 62.25 -55.328125 L 76.078125 -55.328125 L 76.078125 -27.671875 Z M 62.25 -27.671875 "/></g></g></g><g fill="#7ed957" fill-opacity="0.4"><g transform="translate(256.091528, 166.618102)"><g><path d="M 6.921875 0 L 6.921875 -69.171875 L 76.078125 -69.171875 L 76.078125 -55.328125 L 20.75 -55.328125 L 20.75 -41.5 L 62.25 -41.5 L 62.25 -27.671875 L 20.75 -27.671875 L 20.75 -13.828125 L 76.078125 -13.828125 L 76.078125 0 Z M 6.921875 0 "/></g></g></g><g fill="#7ed957" fill-opacity="0.4"><g transform="translate(339.091087, 166.618102)"><g><path d="M 62.25 0 L 62.25 -41.5 L 48.421875 -41.5 L 48.421875 -55.328125 L 62.25 -55.328125 L 62.25 -69.171875 L 76.078125 -69.171875 L 76.078125 0 Z M 6.921875 0 L 6.921875 -69.171875 L 20.75 -69.171875 L 20.75 -55.328125 L 34.578125 -55.328125 L 34.578125 -41.5 L 20.75 -41.5 L 20.75 0 Z M 34.578125 -27.671875 L 34.578125 -41.5 L 48.421875 -41.5 L 48.421875 -27.671875 Z M 34.578125 -27.671875 "/></g></g></g><g fill="#7ed957" fill-opacity="0.4"><g transform="translate(422.090645, 166.618102)"><g><path d="M 62.25 -13.828125 L 62.25 0 L 20.75 0 L 20.75 -13.828125 Z M 6.921875 -13.828125 L 6.921875 -55.328125 L 20.75 -55.328125 L 20.75 -13.828125 Z M 20.75 -55.328125 L 20.75 -69.171875 L 62.25 -69.171875 L 62.25 -55.328125 Z M 62.25 -13.828125 L 62.25 -55.328125 L 76.078125 -55.328125 L 76.078125 -13.828125 Z M 62.25 -13.828125 "/></g></g></g><g fill="#7ed957" fill-opacity="0.4"><g transform="translate(505.090203, 166.618102)"><g><path d="M 62.25 -27.671875 L 62.25 -13.828125 L 48.421875 -13.828125 L 48.421875 -27.671875 Z M 6.921875 -27.671875 L 6.921875 -69.171875 L 20.75 -69.171875 L 20.75 -27.671875 Z M 20.75 -13.828125 L 20.75 -27.671875 L 34.578125 -27.671875 L 34.578125 -13.828125 Z M 34.578125 0 L 34.578125 -13.828125 L 48.421875 -13.828125 L 48.421875 0 Z M 62.25 -27.671875 L 62.25 -69.171875 L 76.078125 -69.171875 L 76.078125 -27.671875 Z M 62.25 -27.671875 "/></g></g></g><g fill="#7ed957" fill-opacity="0.4"><g transform="translate(588.089788, 166.618102)"><g><path d="M 6.921875 0 L 6.921875 -13.828125 L 20.75 -13.828125 L 20.75 -55.328125 L 6.921875 -55.328125 L 6.921875 -69.171875 L 48.421875 -69.171875 L 48.421875 -55.328125 L 34.578125 -55.328125 L 34.578125 -13.828125 L 48.421875 -13.828125 L 48.421875 0 Z M 6.921875 0 "/></g></g></g><g fill="#7ed957" fill-opacity="0.4"><g transform="translate(643.422828, 166.618102)"><g><path d="M 6.921875 0 L 6.921875 -69.171875 L 76.078125 -69.171875 L 76.078125 -55.328125 L 20.75 -55.328125 L 20.75 -41.5 L 62.25 -41.5 L 62.25 -27.671875 L 20.75 -27.671875 L 20.75 -13.828125 L 76.078125 -13.828125 L 76.078125 0 Z M 6.921875 0 "/></g></g></g><g fill="#7ed957" fill-opacity="1"><g transform="translate(2.725286, 162.250535)"><g><path d="M 6.921875 0 L 6.921875 -69.171875 L 62.25 -69.171875 L 62.25 -55.328125 L 20.75 -55.328125 L 20.75 -27.671875 L 62.25 -27.671875 L 62.25 -13.828125 L 20.75 -13.828125 L 20.75 0 Z M 62.25 -27.671875 L 62.25 -55.328125 L 76.078125 -55.328125 L 76.078125 -27.671875 Z M 62.25 -27.671875 "/></g></g></g><g fill="#7ed957" fill-opacity="1"><g transform="translate(85.724845, 162.250535)"><g><path d="M 62.25 -13.828125 L 62.25 0 L 20.75 0 L 20.75 -13.828125 Z M 6.921875 -13.828125 L 6.921875 -69.171875 L 20.75 -69.171875 L 20.75 -13.828125 Z M 62.25 -13.828125 L 62.25 -69.171875 L 76.078125 -69.171875 L 76.078125 -13.828125 Z M 62.25 -13.828125 "/></g></g></g><g fill="#7ed957" fill-opacity="1"><g transform="translate(168.724403, 162.250535)"><g><path d="M 6.921875 0 L 6.921875 -69.171875 L 62.25 -69.171875 L 62.25 -55.328125 L 20.75 -55.328125 L 20.75 -27.671875 L 62.25 -27.671875 L 62.25 -13.828125 L 20.75 -13.828125 L 20.75 0 Z M 62.25 0 L 62.25 -13.828125 L 76.078125 -13.828125 L 76.078125 0 Z M 62.25 -27.671875 L 62.25 -55.328125 L 76.078125 -55.328125 L 76.078125 -27.671875 Z M 62.25 -27.671875 "/></g></g></g><g fill="#7ed957" fill-opacity="1"><g transform="translate(251.723962, 162.250535)"><g><path d="M 6.921875 0 L 6.921875 -69.171875 L 76.078125 -69.171875 L 76.078125 -55.328125 L 20.75 -55.328125 L 20.75 -41.5 L 62.25 -41.5 L 62.25 -27.671875 L 20.75 -27.671875 L 20.75 -13.828125 L 76.078125 -13.828125 L 76.078125 0 Z M 6.921875 0 "/></g></g></g><g fill="#7ed957" fill-opacity="1"><g transform="translate(334.72352, 162.250535)"><g><path d="M 62.25 0 L 62.25 -41.5 L 48.421875 -41.5 L 48.421875 -55.328125 L 62.25 -55.328125 L 62.25 -69.171875 L 76.078125 -69.171875 L 76.078125 0 Z M 6.921875 0 L 6.921875 -69.171875 L 20.75 -69.171875 L 20.75 -55.328125 L 34.578125 -55.328125 L 34.578125 -41.5 L 20.75 -41.5 L 20.75 0 Z M 34.578125 -27.671875 L 34.578125 -41.5 L 48.421875 -41.5 L 48.421875 -27.671875 Z M 34.578125 -27.671875 "/></g></g></g><g fill="#7ed957" fill-opacity="1"><g transform="translate(417.723078, 162.250535)"><g><path d="M 62.25 -13.828125 L 62.25 0 L 20.75 0 L 20.75 -13.828125 Z M 6.921875 -13.828125 L 6.921875 -55.328125 L 20.75 -55.328125 L 20.75 -13.828125 Z M 20.75 -55.328125 L 20.75 -69.171875 L 62.25 -69.171875 L 62.25 -55.328125 Z M 62.25 -13.828125 L 62.25 -55.328125 L 76.078125 -55.328125 L 76.078125 -13.828125 Z M 62.25 -13.828125 "/></g></g></g><g fill="#7ed957" fill-opacity="1"><g transform="translate(500.722637, 162.250535)"><g><path d="M 62.25 -27.671875 L 62.25 -13.828125 L 48.421875 -13.828125 L 48.421875 -27.671875 Z M 6.921875 -27.671875 L 6.921875 -69.171875 L 20.75 -69.171875 L 20.75 -27.671875 Z M 20.75 -13.828125 L 20.75 -27.671875 L 34.578125 -27.671875 L 34.578125 -13.828125 Z M 34.578125 0 L 34.578125 -13.828125 L 48.421875 -13.828125 L 48.421875 0 Z M 62.25 -27.671875 L 62.25 -69.171875 L 76.078125 -69.171875 L 76.078125 -27.671875 Z M 62.25 -27.671875 "/></g></g></g><g fill="#7ed957" fill-opacity="1"><g transform="translate(583.722221, 162.250535)"><g><path d="M 6.921875 0 L 6.921875 -13.828125 L 20.75 -13.828125 L 20.75 -55.328125 L 6.921875 -55.328125 L 6.921875 -69.171875 L 48.421875 -69.171875 L 48.421875 -55.328125 L 34.578125 -55.328125 L 34.578125 -13.828125 L 48.421875 -13.828125 L 48.421875 0 Z M 6.921875 0 "/></g></g></g><g fill="#7ed957" fill-opacity="1"><g transform="translate(639.055261, 162.250535)"><g><path d="M 6.921875 0 L 6.921875 -69.171875 L 76.078125 -69.171875 L 76.078125 -55.328125 L 20.75 -55.328125 L 20.75 -41.5 L 62.25 -41.5 L 62.25 -27.671875 L 20.75 -27.671875 L 20.75 -13.828125 L 76.078125 -13.828125 L 76.078125 0 Z M 6.921875 0 "/></g></g></g><g fill="#000000" fill-opacity="0.4"><g transform="translate(8.24111, 88.302693)"><g><path d="M 23.1875 -12.5 C 24.15625 -12.78125 24.992188 -12.742188 25.703125 -12.390625 C 26.421875 -12.046875 26.976562 -11.523438 27.375 -10.828125 C 27.769531 -10.140625 27.976562 -9.394531 28 -8.59375 C 28.019531 -7.789062 27.8125 -7.050781 27.375 -6.375 C 26.9375 -5.695312 26.234375 -5.238281 25.265625 -5 C 23.492188 -4.476562 21.675781 -4.09375 19.8125 -3.84375 C 17.957031 -3.601562 16.117188 -3.597656 14.296875 -3.828125 C 12.472656 -4.054688 10.726562 -4.640625 9.0625 -5.578125 C 6.90625 -6.828125 5.265625 -8.523438 4.140625 -10.671875 C 3.015625 -12.828125 2.503906 -15.140625 2.609375 -17.609375 C 2.742188 -20.035156 3.347656 -22.367188 4.421875 -24.609375 C 5.503906 -26.847656 6.9375 -28.816406 8.71875 -30.515625 C 10.507812 -32.222656 12.539062 -33.535156 14.8125 -34.453125 C 17.09375 -35.378906 19.46875 -35.753906 21.9375 -35.578125 C 22.9375 -35.472656 23.738281 -35.132812 24.34375 -34.5625 C 24.957031 -33.988281 25.359375 -33.3125 25.546875 -32.53125 C 25.742188 -31.75 25.742188 -30.972656 25.546875 -30.203125 C 25.359375 -29.441406 24.957031 -28.816406 24.34375 -28.328125 C 23.738281 -27.847656 22.9375 -27.660156 21.9375 -27.765625 C 20.125 -27.898438 18.410156 -27.5625 16.796875 -26.75 C 15.179688 -25.9375 13.816406 -24.800781 12.703125 -23.34375 C 11.597656 -21.882812 10.890625 -20.269531 10.578125 -18.5 C 10.265625 -16.894531 10.34375 -15.613281 10.8125 -14.65625 C 11.28125 -13.707031 11.984375 -13.003906 12.921875 -12.546875 C 13.859375 -12.097656 14.925781 -11.820312 16.125 -11.71875 C 17.320312 -11.613281 18.535156 -11.644531 19.765625 -11.8125 C 21.003906 -11.988281 22.144531 -12.21875 23.1875 -12.5 Z M 23.1875 -12.5 "/></g></g></g><g fill="#000000" fill-opacity="0.4"><g transform="translate(38.870573, 88.302693)"><g><path d="M 30.46875 -29.640625 C 30.675781 -27.765625 30.691406 -25.722656 30.515625 -23.515625 C 30.347656 -21.316406 29.953125 -19.113281 29.328125 -16.90625 C 28.703125 -14.695312 27.820312 -12.644531 26.6875 -10.75 C 25.5625 -8.863281 24.175781 -7.269531 22.53125 -5.96875 C 20.882812 -4.664062 18.96875 -3.820312 16.78125 -3.4375 C 14.488281 -3.050781 12.53125 -3.234375 10.90625 -3.984375 C 9.289062 -4.734375 7.953125 -5.863281 6.890625 -7.375 C 5.835938 -8.882812 5 -10.632812 4.375 -12.625 C 3.75 -14.625 3.304688 -16.691406 3.046875 -18.828125 C 2.785156 -20.960938 2.644531 -23.019531 2.625 -25 C 2.613281 -26.976562 2.660156 -28.695312 2.765625 -30.15625 C 2.828125 -31.164062 3.144531 -31.960938 3.71875 -32.546875 C 4.289062 -33.140625 4.96875 -33.539062 5.75 -33.75 C 6.53125 -33.957031 7.300781 -33.957031 8.0625 -33.75 C 8.832031 -33.539062 9.457031 -33.140625 9.9375 -32.546875 C 10.425781 -31.960938 10.640625 -31.164062 10.578125 -30.15625 C 10.535156 -29.632812 10.5 -28.757812 10.46875 -27.53125 C 10.4375 -26.300781 10.453125 -24.882812 10.515625 -23.28125 C 10.585938 -21.6875 10.734375 -20.085938 10.953125 -18.484375 C 11.179688 -16.890625 11.515625 -15.46875 11.953125 -14.21875 C 12.390625 -12.96875 12.972656 -12.070312 13.703125 -11.53125 C 14.429688 -11 15.351562 -10.992188 16.46875 -11.515625 C 17.988281 -12.203125 19.203125 -13.265625 20.109375 -14.703125 C 21.015625 -16.148438 21.675781 -17.757812 22.09375 -19.53125 C 22.507812 -21.300781 22.75 -23.070312 22.8125 -24.84375 C 22.882812 -26.613281 22.832031 -28.210938 22.65625 -29.640625 C 22.519531 -30.648438 22.675781 -31.445312 23.125 -32.03125 C 23.582031 -32.625 24.179688 -33.015625 24.921875 -33.203125 C 25.671875 -33.398438 26.441406 -33.398438 27.234375 -33.203125 C 28.035156 -33.015625 28.738281 -32.613281 29.34375 -32 C 29.957031 -31.394531 30.332031 -30.609375 30.46875 -29.640625 Z M 30.46875 -29.640625 "/></g></g></g><g fill="#000000" fill-opacity="0.4"><g transform="translate(72.104587, 88.302693)"><g><path d="M 26.046875 -32.921875 C 25.003906 -31.148438 23.882812 -29.40625 22.6875 -27.6875 C 21.488281 -25.96875 20.109375 -24.429688 18.546875 -23.078125 C 21.878906 -19.253906 23.769531 -14.722656 24.21875 -9.484375 C 24.289062 -8.503906 24.09375 -7.710938 23.625 -7.109375 C 23.15625 -6.503906 22.546875 -6.101562 21.796875 -5.90625 C 21.054688 -5.71875 20.285156 -5.71875 19.484375 -5.90625 C 18.679688 -6.101562 17.984375 -6.503906 17.390625 -7.109375 C 16.804688 -7.710938 16.476562 -8.503906 16.40625 -9.484375 C 16.238281 -11.359375 15.738281 -13.128906 14.90625 -14.796875 C 14.070312 -16.460938 12.972656 -17.921875 11.609375 -19.171875 C 11.265625 -14.753906 10.796875 -10.394531 10.203125 -6.09375 C 10.097656 -5.394531 9.773438 -4.8125 9.234375 -4.34375 C 8.703125 -3.875 8.078125 -3.546875 7.359375 -3.359375 C 6.648438 -3.171875 5.984375 -3.160156 5.359375 -3.328125 C 4.253906 -3.640625 3.492188 -4.253906 3.078125 -5.171875 C 2.660156 -6.097656 2.519531 -7.082031 2.65625 -8.125 C 3.3125 -13.0625 3.804688 -18.019531 4.140625 -23 C 4.472656 -27.976562 4.65625 -32.953125 4.6875 -37.921875 C 4.6875 -38.929688 4.945312 -39.738281 5.46875 -40.34375 C 5.988281 -40.957031 6.640625 -41.359375 7.421875 -41.546875 C 8.203125 -41.734375 8.984375 -41.734375 9.765625 -41.546875 C 10.546875 -41.359375 11.195312 -40.957031 11.71875 -40.34375 C 12.238281 -39.738281 12.5 -38.929688 12.5 -37.921875 C 12.46875 -36.222656 12.429688 -34.53125 12.390625 -32.84375 C 12.359375 -31.15625 12.289062 -29.460938 12.1875 -27.765625 C 13.226562 -28.390625 14.179688 -29.226562 15.046875 -30.28125 C 15.921875 -31.34375 16.703125 -32.460938 17.390625 -33.640625 C 18.085938 -34.828125 18.71875 -35.890625 19.28125 -36.828125 C 19.800781 -37.691406 20.429688 -38.253906 21.171875 -38.515625 C 21.921875 -38.773438 22.6875 -38.800781 23.46875 -38.59375 C 24.25 -38.382812 24.925781 -37.992188 25.5 -37.421875 C 26.070312 -36.847656 26.425781 -36.171875 26.5625 -35.390625 C 26.707031 -34.609375 26.535156 -33.785156 26.046875 -32.921875 Z M 26.046875 -32.921875 "/></g></g></g><g fill="#000000" fill-opacity="0.4"><g transform="translate(101.275505, 88.302693)"><g><path d="M 4.953125 -32.140625 C 5.054688 -33.109375 5.398438 -33.894531 5.984375 -34.5 C 6.578125 -35.113281 7.269531 -35.515625 8.0625 -35.703125 C 8.863281 -35.898438 9.644531 -35.898438 10.40625 -35.703125 C 11.175781 -35.515625 11.785156 -35.125 12.234375 -34.53125 C 12.691406 -33.945312 12.867188 -33.148438 12.765625 -32.140625 C 11.753906 -22.734375 10.972656 -13.304688 10.421875 -3.859375 C 10.347656 -2.847656 10.03125 -2.046875 9.46875 -1.453125 C 8.914062 -0.867188 8.25 -0.472656 7.46875 -0.265625 C 6.6875 -0.0546875 5.914062 -0.0546875 5.15625 -0.265625 C 4.394531 -0.472656 3.757812 -0.867188 3.25 -1.453125 C 2.75 -2.046875 2.535156 -2.847656 2.609375 -3.859375 C 3.160156 -13.304688 3.941406 -22.734375 4.953125 -32.140625 Z M 4.953125 -32.140625 "/></g></g></g><g fill="#000000" fill-opacity="0.4"><g transform="translate(116.694418, 88.302693)"><g><path d="M 11.5625 -35.53125 C 12.394531 -34.757812 12.765625 -33.835938 12.671875 -32.765625 C 12.585938 -31.691406 12.21875 -30.769531 11.5625 -30 C 11.5625 -30 11.550781 -29.988281 11.53125 -29.96875 C 11.519531 -29.957031 11.515625 -29.953125 11.515625 -29.953125 C 11.367188 -29.742188 11.242188 -29.570312 11.140625 -29.4375 C 11.109375 -29.332031 11.066406 -29.21875 11.015625 -29.09375 C 10.960938 -28.96875 10.898438 -28.851562 10.828125 -28.75 C 10.828125 -28.71875 10.789062 -28.625 10.71875 -28.46875 C 10.65625 -28.3125 10.625 -28.21875 10.625 -28.1875 C 10.59375 -28.113281 10.554688 -27.953125 10.515625 -27.703125 C 10.484375 -27.460938 10.445312 -27.289062 10.40625 -27.1875 C 10.375 -27.082031 10.378906 -27.1875 10.421875 -27.5 C 10.316406 -26.425781 9.929688 -25.523438 9.265625 -24.796875 C 8.609375 -24.066406 7.691406 -23.664062 6.515625 -23.59375 C 5.890625 -23.5625 5.253906 -23.734375 4.609375 -24.109375 C 3.960938 -24.492188 3.445312 -24.988281 3.0625 -25.59375 C 2.6875 -26.207031 2.535156 -26.84375 2.609375 -27.5 C 2.773438 -29.03125 3.132812 -30.453125 3.6875 -31.765625 C 4.25 -33.085938 5.035156 -34.34375 6.046875 -35.53125 C 6.734375 -36.363281 7.640625 -36.734375 8.765625 -36.640625 C 9.898438 -36.554688 10.832031 -36.1875 11.5625 -35.53125 Z M 11.5625 -35.53125 "/></g></g></g><g fill="#000000" fill-opacity="0.4"><g transform="translate(131.957056, 88.302693)"><g><path d="M 19.4375 -22.609375 C 21.375 -21.285156 22.90625 -19.554688 24.03125 -17.421875 C 25.164062 -15.285156 25.613281 -13.035156 25.375 -10.671875 C 25.125 -8.585938 24.410156 -6.789062 23.234375 -5.28125 C 22.054688 -3.769531 20.609375 -2.609375 18.890625 -1.796875 C 17.171875 -0.984375 15.34375 -0.53125 13.40625 -0.4375 C 11.476562 -0.351562 9.628906 -0.675781 7.859375 -1.40625 C 6.085938 -2.132812 4.597656 -3.296875 3.390625 -4.890625 C 2.765625 -5.722656 2.503906 -6.503906 2.609375 -7.234375 C 2.710938 -7.960938 3.03125 -8.601562 3.5625 -9.15625 C 4.101562 -9.71875 4.769531 -10.109375 5.5625 -10.328125 C 6.363281 -10.554688 7.171875 -10.566406 7.984375 -10.359375 C 8.804688 -10.148438 9.515625 -9.648438 10.109375 -8.859375 C 10.378906 -8.472656 10.894531 -8.253906 11.65625 -8.203125 C 12.425781 -8.148438 13.191406 -8.179688 13.953125 -8.296875 C 14.722656 -8.421875 15.265625 -8.554688 15.578125 -8.703125 C 16.304688 -9.046875 16.851562 -9.554688 17.21875 -10.234375 C 17.582031 -10.910156 17.710938 -11.648438 17.609375 -12.453125 C 17.503906 -13.421875 17.15625 -14.226562 16.5625 -14.875 C 15.976562 -15.519531 15.273438 -16.066406 14.453125 -16.515625 C 13.640625 -16.960938 12.816406 -17.40625 11.984375 -17.84375 C 11.148438 -18.28125 10.421875 -18.757812 9.796875 -19.28125 C 8.054688 -20.800781 6.992188 -22.460938 6.609375 -24.265625 C 6.234375 -26.078125 6.363281 -27.867188 7 -29.640625 C 7.644531 -31.410156 8.644531 -33.023438 10 -34.484375 C 11.351562 -35.941406 12.898438 -37.085938 14.640625 -37.921875 C 15.578125 -38.335938 16.441406 -38.445312 17.234375 -38.25 C 18.035156 -38.0625 18.722656 -37.671875 19.296875 -37.078125 C 19.867188 -36.492188 20.257812 -35.816406 20.46875 -35.046875 C 20.675781 -34.285156 20.640625 -33.554688 20.359375 -32.859375 C 20.085938 -32.171875 19.5 -31.601562 18.59375 -31.15625 C 18.007812 -30.875 17.328125 -30.488281 16.546875 -30 C 15.765625 -29.519531 15.117188 -28.941406 14.609375 -28.265625 C 14.109375 -27.585938 14.015625 -26.832031 14.328125 -26 C 14.503906 -25.4375 14.910156 -24.957031 15.546875 -24.5625 C 16.191406 -24.164062 16.878906 -23.8125 17.609375 -23.5 C 18.335938 -23.1875 18.945312 -22.890625 19.4375 -22.609375 Z M 19.4375 -22.609375 "/></g></g></g><g fill="#d88471" fill-opacity="1"><g transform="translate(5.938466, 86.000047)"><g><path d="M 23.1875 -12.5 C 24.15625 -12.78125 24.992188 -12.742188 25.703125 -12.390625 C 26.421875 -12.046875 26.976562 -11.523438 27.375 -10.828125 C 27.769531 -10.140625 27.976562 -9.394531 28 -8.59375 C 28.019531 -7.789062 27.8125 -7.050781 27.375 -6.375 C 26.9375 -5.695312 26.234375 -5.238281 25.265625 -5 C 23.492188 -4.476562 21.675781 -4.09375 19.8125 -3.84375 C 17.957031 -3.601562 16.117188 -3.597656 14.296875 -3.828125 C 12.472656 -4.054688 10.726562 -4.640625 9.0625 -5.578125 C 6.90625 -6.828125 5.265625 -8.523438 4.140625 -10.671875 C 3.015625 -12.828125 2.503906 -15.140625 2.609375 -17.609375 C 2.742188 -20.035156 3.347656 -22.367188 4.421875 -24.609375 C 5.503906 -26.847656 6.9375 -28.816406 8.71875 -30.515625 C 10.507812 -32.222656 12.539062 -33.535156 14.8125 -34.453125 C 17.09375 -35.378906 19.46875 -35.753906 21.9375 -35.578125 C 22.9375 -35.472656 23.738281 -35.132812 24.34375 -34.5625 C 24.957031 -33.988281 25.359375 -33.3125 25.546875 -32.53125 C 25.742188 -31.75 25.742188 -30.972656 25.546875 -30.203125 C 25.359375 -29.441406 24.957031 -28.816406 24.34375 -28.328125 C 23.738281 -27.847656 22.9375 -27.660156 21.9375 -27.765625 C 20.125 -27.898438 18.410156 -27.5625 16.796875 -26.75 C 15.179688 -25.9375 13.816406 -24.800781 12.703125 -23.34375 C 11.597656 -21.882812 10.890625 -20.269531 10.578125 -18.5 C 10.265625 -16.894531 10.34375 -15.613281 10.8125 -14.65625 C 11.28125 -13.707031 11.984375 -13.003906 12.921875 -12.546875 C 13.859375 -12.097656 14.925781 -11.820312 16.125 -11.71875 C 17.320312 -11.613281 18.535156 -11.644531 19.765625 -11.8125 C 21.003906 -11.988281 22.144531 -12.21875 23.1875 -12.5 Z M 23.1875 -12.5 "/></g></g></g><g fill="#d88471" fill-opacity="1"><g transform="translate(36.567929, 86.000047)"><g><path d="M 30.46875 -29.640625 C 30.675781 -27.765625 30.691406 -25.722656 30.515625 -23.515625 C 30.347656 -21.316406 29.953125 -19.113281 29.328125 -16.90625 C 28.703125 -14.695312 27.820312 -12.644531 26.6875 -10.75 C 25.5625 -8.863281 24.175781 -7.269531 22.53125 -5.96875 C 20.882812 -4.664062 18.96875 -3.820312 16.78125 -3.4375 C 14.488281 -3.050781 12.53125 -3.234375 10.90625 -3.984375 C 9.289062 -4.734375 7.953125 -5.863281 6.890625 -7.375 C 5.835938 -8.882812 5 -10.632812 4.375 -12.625 C 3.75 -14.625 3.304688 -16.691406 3.046875 -18.828125 C 2.785156 -20.960938 2.644531 -23.019531 2.625 -25 C 2.613281 -26.976562 2.660156 -28.695312 2.765625 -30.15625 C 2.828125 -31.164062 3.144531 -31.960938 3.71875 -32.546875 C 4.289062 -33.140625 4.96875 -33.539062 5.75 -33.75 C 6.53125 -33.957031 7.300781 -33.957031 8.0625 -33.75 C 8.832031 -33.539062 9.457031 -33.140625 9.9375 -32.546875 C 10.425781 -31.960938 10.640625 -31.164062 10.578125 -30.15625 C 10.535156 -29.632812 10.5 -28.757812 10.46875 -27.53125 C 10.4375 -26.300781 10.453125 -24.882812 10.515625 -23.28125 C 10.585938 -21.6875 10.734375 -20.085938 10.953125 -18.484375 C 11.179688 -16.890625 11.515625 -15.46875 11.953125 -14.21875 C 12.390625 -12.96875 12.972656 -12.070312 13.703125 -11.53125 C 14.429688 -11 15.351562 -10.992188 16.46875 -11.515625 C 17.988281 -12.203125 19.203125 -13.265625 20.109375 -14.703125 C 21.015625 -16.148438 21.675781 -17.757812 22.09375 -19.53125 C 22.507812 -21.300781 22.75 -23.070312 22.8125 -24.84375 C 22.882812 -26.613281 22.832031 -28.210938 22.65625 -29.640625 C 22.519531 -30.648438 22.675781 -31.445312 23.125 -32.03125 C 23.582031 -32.625 24.179688 -33.015625 24.921875 -33.203125 C 25.671875 -33.398438 26.441406 -33.398438 27.234375 -33.203125 C 28.035156 -33.015625 28.738281 -32.613281 29.34375 -32 C 29.957031 -31.394531 30.332031 -30.609375 30.46875 -29.640625 Z M 30.46875 -29.640625 "/></g></g></g><g fill="#d88471" fill-opacity="1"><g transform="translate(69.801943, 86.000047)"><g><path d="M 26.046875 -32.921875 C 25.003906 -31.148438 23.882812 -29.40625 22.6875 -27.6875 C 21.488281 -25.96875 20.109375 -24.429688 18.546875 -23.078125 C 21.878906 -19.253906 23.769531 -14.722656 24.21875 -9.484375 C 24.289062 -8.503906 24.09375 -7.710938 23.625 -7.109375 C 23.15625 -6.503906 22.546875 -6.101562 21.796875 -5.90625 C 21.054688 -5.71875 20.285156 -5.71875 19.484375 -5.90625 C 18.679688 -6.101562 17.984375 -6.503906 17.390625 -7.109375 C 16.804688 -7.710938 16.476562 -8.503906 16.40625 -9.484375 C 16.238281 -11.359375 15.738281 -13.128906 14.90625 -14.796875 C 14.070312 -16.460938 12.972656 -17.921875 11.609375 -19.171875 C 11.265625 -14.753906 10.796875 -10.394531 10.203125 -6.09375 C 10.097656 -5.394531 9.773438 -4.8125 9.234375 -4.34375 C 8.703125 -3.875 8.078125 -3.546875 7.359375 -3.359375 C 6.648438 -3.171875 5.984375 -3.160156 5.359375 -3.328125 C 4.253906 -3.640625 3.492188 -4.253906 3.078125 -5.171875 C 2.660156 -6.097656 2.519531 -7.082031 2.65625 -8.125 C 3.3125 -13.0625 3.804688 -18.019531 4.140625 -23 C 4.472656 -27.976562 4.65625 -32.953125 4.6875 -37.921875 C 4.6875 -38.929688 4.945312 -39.738281 5.46875 -40.34375 C 5.988281 -40.957031 6.640625 -41.359375 7.421875 -41.546875 C 8.203125 -41.734375 8.984375 -41.734375 9.765625 -41.546875 C 10.546875 -41.359375 11.195312 -40.957031 11.71875 -40.34375 C 12.238281 -39.738281 12.5 -38.929688 12.5 -37.921875 C 12.46875 -36.222656 12.429688 -34.53125 12.390625 -32.84375 C 12.359375 -31.15625 12.289062 -29.460938 12.1875 -27.765625 C 13.226562 -28.390625 14.179688 -29.226562 15.046875 -30.28125 C 15.921875 -31.34375 16.703125 -32.460938 17.390625 -33.640625 C 18.085938 -34.828125 18.71875 -35.890625 19.28125 -36.828125 C 19.800781 -37.691406 20.429688 -38.253906 21.171875 -38.515625 C 21.921875 -38.773438 22.6875 -38.800781 23.46875 -38.59375 C 24.25 -38.382812 24.925781 -37.992188 25.5 -37.421875 C 26.070312 -36.847656 26.425781 -36.171875 26.5625 -35.390625 C 26.707031 -34.609375 26.535156 -33.785156 26.046875 -32.921875 Z M 26.046875 -32.921875 "/></g></g></g><g fill="#d88471" fill-opacity="1"><g transform="translate(98.972861, 86.000047)"><g><path d="M 4.953125 -32.140625 C 5.054688 -33.109375 5.398438 -33.894531 5.984375 -34.5 C 6.578125 -35.113281 7.269531 -35.515625 8.0625 -35.703125 C 8.863281 -35.898438 9.644531 -35.898438 10.40625 -35.703125 C 11.175781 -35.515625 11.785156 -35.125 12.234375 -34.53125 C 12.691406 -33.945312 12.867188 -33.148438 12.765625 -32.140625 C 11.753906 -22.734375 10.972656 -13.304688 10.421875 -3.859375 C 10.347656 -2.847656 10.03125 -2.046875 9.46875 -1.453125 C 8.914062 -0.867188 8.25 -0.472656 7.46875 -0.265625 C 6.6875 -0.0546875 5.914062 -0.0546875 5.15625 -0.265625 C 4.394531 -0.472656 3.757812 -0.867188 3.25 -1.453125 C 2.75 -2.046875 2.535156 -2.847656 2.609375 -3.859375 C 3.160156 -13.304688 3.941406 -22.734375 4.953125 -32.140625 Z M 4.953125 -32.140625 "/></g></g></g><g fill="#d88471" fill-opacity="1"><g transform="translate(114.391774, 86.000047)"><g><path d="M 11.5625 -35.53125 C 12.394531 -34.757812 12.765625 -33.835938 12.671875 -32.765625 C 12.585938 -31.691406 12.21875 -30.769531 11.5625 -30 C 11.5625 -30 11.550781 -29.988281 11.53125 -29.96875 C 11.519531 -29.957031 11.515625 -29.953125 11.515625 -29.953125 C 11.367188 -29.742188 11.242188 -29.570312 11.140625 -29.4375 C 11.109375 -29.332031 11.066406 -29.21875 11.015625 -29.09375 C 10.960938 -28.96875 10.898438 -28.851562 10.828125 -28.75 C 10.828125 -28.71875 10.789062 -28.625 10.71875 -28.46875 C 10.65625 -28.3125 10.625 -28.21875 10.625 -28.1875 C 10.59375 -28.113281 10.554688 -27.953125 10.515625 -27.703125 C 10.484375 -27.460938 10.445312 -27.289062 10.40625 -27.1875 C 10.375 -27.082031 10.378906 -27.1875 10.421875 -27.5 C 10.316406 -26.425781 9.929688 -25.523438 9.265625 -24.796875 C 8.609375 -24.066406 7.691406 -23.664062 6.515625 -23.59375 C 5.890625 -23.5625 5.253906 -23.734375 4.609375 -24.109375 C 3.960938 -24.492188 3.445312 -24.988281 3.0625 -25.59375 C 2.6875 -26.207031 2.535156 -26.84375 2.609375 -27.5 C 2.773438 -29.03125 3.132812 -30.453125 3.6875 -31.765625 C 4.25 -33.085938 5.035156 -34.34375 6.046875 -35.53125 C 6.734375 -36.363281 7.640625 -36.734375 8.765625 -36.640625 C 9.898438 -36.554688 10.832031 -36.1875 11.5625 -35.53125 Z M 11.5625 -35.53125 "/></g></g></g><g fill="#d88471" fill-opacity="1"><g transform="translate(129.654412, 86.000047)"><g><path d="M 19.4375 -22.609375 C 21.375 -21.285156 22.90625 -19.554688 24.03125 -17.421875 C 25.164062 -15.285156 25.613281 -13.035156 25.375 -10.671875 C 25.125 -8.585938 24.410156 -6.789062 23.234375 -5.28125 C 22.054688 -3.769531 20.609375 -2.609375 18.890625 -1.796875 C 17.171875 -0.984375 15.34375 -0.53125 13.40625 -0.4375 C 11.476562 -0.351562 9.628906 -0.675781 7.859375 -1.40625 C 6.085938 -2.132812 4.597656 -3.296875 3.390625 -4.890625 C 2.765625 -5.722656 2.503906 -6.503906 2.609375 -7.234375 C 2.710938 -7.960938 3.03125 -8.601562 3.5625 -9.15625 C 4.101562 -9.71875 4.769531 -10.109375 5.5625 -10.328125 C 6.363281 -10.554688 7.171875 -10.566406 7.984375 -10.359375 C 8.804688 -10.148438 9.515625 -9.648438 10.109375 -8.859375 C 10.378906 -8.472656 10.894531 -8.253906 11.65625 -8.203125 C 12.425781 -8.148438 13.191406 -8.179688 13.953125 -8.296875 C 14.722656 -8.421875 15.265625 -8.554688 15.578125 -8.703125 C 16.304688 -9.046875 16.851562 -9.554688 17.21875 -10.234375 C 17.582031 -10.910156 17.710938 -11.648438 17.609375 -12.453125 C 17.503906 -13.421875 17.15625 -14.226562 16.5625 -14.875 C 15.976562 -15.519531 15.273438 -16.066406 14.453125 -16.515625 C 13.640625 -16.960938 12.816406 -17.40625 11.984375 -17.84375 C 11.148438 -18.28125 10.421875 -18.757812 9.796875 -19.28125 C 8.054688 -20.800781 6.992188 -22.460938 6.609375 -24.265625 C 6.234375 -26.078125 6.363281 -27.867188 7 -29.640625 C 7.644531 -31.410156 8.644531 -33.023438 10 -34.484375 C 11.351562 -35.941406 12.898438 -37.085938 14.640625 -37.921875 C 15.578125 -38.335938 16.441406 -38.445312 17.234375 -38.25 C 18.035156 -38.0625 18.722656 -37.671875 19.296875 -37.078125 C 19.867188 -36.492188 20.257812 -35.816406 20.46875 -35.046875 C 20.675781 -34.285156 20.640625 -33.554688 20.359375 -32.859375 C 20.085938 -32.171875 19.5 -31.601562 18.59375 -31.15625 C 18.007812 -30.875 17.328125 -30.488281 16.546875 -30 C 15.765625 -29.519531 15.117188 -28.941406 14.609375 -28.265625 C 14.109375 -27.585938 14.015625 -26.832031 14.328125 -26 C 14.503906 -25.4375 14.910156 -24.957031 15.546875 -24.5625 C 16.191406 -24.164062 16.878906 -23.8125 17.609375 -23.5 C 18.335938 -23.1875 18.945312 -22.890625 19.4375 -22.609375 Z M 19.4375 -22.609375 "/></g></g></g></svg>